<svg xmlns="http://www.w3.org/2000/svg" width="147.171" height="34"><g fill="#fff"><path d="M10.456 11.242c3.329 0 5.804.683 8.066 1.75v6.316c-1.75-1.067-4.438-1.878-6.487-1.878-.811 0-1.494.171-1.494.726 0 2.219 9.603.981 9.603 8.194 0 5.292-4.866 6.743-10.115 6.743-3.542 0-6.316-.555-8.578-1.793v-6.87c2.305 1.665 5.42 2.263 7.383 2.263 1.494 0 2.006-.257 2.006-.769 0-2.049-9.646-1.152-9.646-8.109.001-5.037 4.525-6.573 9.262-6.573zM32.865 11.242c9.219 0 11.523 7.042 10.243 12.975H30.475c.725 1.75 3.201 2.561 5.847 2.561 2.177 0 4.14-.256 5.89-.811v6.06c-2.006.684-4.268 1.067-7.469 1.067-6.572 0-12.889-3.158-12.889-11.054 0-8.023 6.444-10.798 11.011-10.798zm.469 5.933c-1.792 0-2.945 1.237-2.945 2.902h5.42c.214-1.195-.383-2.902-2.475-2.902zM61.591 11.498v8.45c-2.305-.726-5.25-.298-6.53 1.067v11.396h-9.005V11.925h7.896v2.391c1.322-1.751 3.456-3.288 7.639-2.818zM68.421 9.834c-2.476 0-4.695-1.408-4.695-4.524 0-3.072 2.22-4.481 4.695-4.481 2.518 0 4.694 1.409 4.694 4.481 0 3.116-2.177 4.524-4.694 4.524zm-4.482 22.577V11.925h9.005v20.486h-9.005zM87.372 11.242c6.401 0 11.822 3.542 11.822 10.926s-5.421 10.926-11.822 10.926c-6.402 0-11.779-3.542-11.779-10.926s5.377-10.926 11.779-10.926zm0 7.426c-2.22 0-2.987 1.579-2.987 3.5s.768 3.5 2.987 3.5c2.262 0 3.03-1.579 3.03-3.5s-.768-3.5-3.03-3.5zM123.737 11.925v20.486h-7.896v-2.049c-1.792 1.793-3.841 2.731-6.316 2.731-5.633 0-7.896-3.969-7.896-7.938v-13.23h9.006v11.694c0 1.365.811 1.963 1.963 1.963.981 0 1.75-.555 2.134-1.024V11.925h9.005zM135.944 11.242c3.329 0 5.805.683 8.066 1.75v6.316c-1.75-1.067-4.438-1.878-6.487-1.878-.811 0-1.493.171-1.493.726 0 2.219 9.603.981 9.603 8.194 0 5.292-4.865 6.743-10.115 6.743-3.542 0-6.316-.555-8.578-1.793v-6.87c2.305 1.665 5.42 2.263 7.384 2.263 1.493 0 2.006-.257 2.006-.769 0-2.049-9.646-1.152-9.646-8.109-.001-5.037 4.523-6.573 9.26-6.573z"/></g></svg>